<svg id="Capa_1" enable-background="new 0 0 512 512" height="512" viewBox="0 0 512 512" width="512" xmlns="http://www.w3.org/2000/svg"><g><path d="m300.607 314.523h-62.353l6.181-60.245h49.991z" fill="#c77e67"/><path d="m401.571 244.796c-1.822 0-3.652-.641-5.123-1.946l-34.51-30.603-16.339 9.297c-3.709 2.11-8.426.815-10.536-2.894s-.814-8.427 2.894-10.536l16.465-9.368c5.679-3.23 12.775-2.488 17.661 1.846l34.617 30.697c3.193 2.831 3.486 7.714.654 10.907-1.526 1.722-3.649 2.6-5.783 2.6z" fill="#514898"/><g><ellipse cx="443.501" cy="385.666" fill="#514898" rx="51.473" ry="51.474" transform="matrix(.788 -.615 .615 .788 -143.412 354.616)"/><ellipse cx="443.501" cy="385.666" fill="#d5d9f2" rx="20.547" ry="20.547" transform="matrix(.788 -.615 .615 .788 -143.412 354.617)"/></g><path d="m425.737 295.777-18.243 69.342 99.899-26.48c3.572-.947 5.528-4.789 4.176-8.229-6.375-16.222-28.274-55.53-85.832-34.633z" fill="#e9a52d"/><path d="m458.69 312.119-42.954 59.745c-6.23 8.666-16.251 13.803-26.923 13.803h-201.558c-20.645 0-187.255-16.736-187.255-37.381v-48.999c0-78.928 24.914-224.427 202.303-224.427 23.585 0 85.428 8.814 114.882 31.657 4.783 3.71 5.891 10.497 2.68 15.635-1.085 1.727-2.58 3.122-4.318 4.086s-3.709 1.484-5.758 1.484h-62.33c-47.138 0-85.361 38.213-85.361 85.361 0 23.574 9.556 44.912 25.003 60.358 15.447 15.447 36.795 25.003 60.359 25.003h84.656c4.329 0 8.393-2.084 10.92-5.598l55.821-77.635c4.77-6.635 14.224-7.787 20.402-2.438 12.593 10.903 23.301 23.986 31.389 38.557 5.84 10.522 10.303 21.799 13.307 33.452 2.428 9.421.414 19.438-5.265 27.337z" fill="#eec06b"/><path d="m412.507 356.789h-401.703c-5.967 0-10.804-4.837-10.804-10.804v28.878c0 5.967 180.759 10.804 186.725 10.804h202.088c10.673 0 20.693-5.137 26.923-13.803l14.58-20.28c-5.253 3.347-11.41 5.205-17.809 5.205z" fill="#e9a52d"/><path d="m105.292 287.754c-20.494-8.921-44.809-10.454-65.045-.962-6.313 2.961-11.873 6.77-16.789 11.229-15.157 13.744-23.458 33.498-23.458 53.959v22.883c0 5.967 4.837 10.804 10.804 10.804h177.668c-19.043-38.897-41.78-79.893-83.18-97.913z" fill="#92e0c4"/><path d="m10.804 356.789c-5.408 0-9.875-3.978-10.667-9.165-.083 1.447-.137 2.899-.137 4.356v22.883c0 2.237.68 4.316 1.845 6.041 1.942 2.874 5.229 4.763 8.959 4.763h177.668c-4.712-9.624-9.651-19.376-15.042-28.878z" fill="#77d1b3"/><g transform="matrix(.788 -.615 .615 .788 -220.659 130.159)"><ellipse cx="78.773" cy="385.666" fill="#514898" rx="51.473" ry="51.474"/><ellipse cx="78.773" cy="385.666" fill="#d5d9f2" rx="20.547" ry="20.547"/></g><path d="m262.477 240.702-10.82-47.467c-1.654-7.256-8.878-11.797-16.133-10.142l-8.514 1.942c-3.705.845-6.024 4.533-5.179 8.239l16.158 70.905c.748 3.284 3.669 5.615 7.038 5.615h44.782c8.034 0 14.546-6.513 14.546-14.546s-6.513-14.546-14.546-14.546z" fill="#d09180"/></g></svg>